PathFileType	4	(X/Y/Z)	C:/Users/opensim2020/Desktop/walking_exp_matlab/subject01_walking10_straight_04.trc	
DataRate	CameraRate	NumFrames	NumMarkers	Units	OrigDataRate	OrigDataStartFrame	OrigNumFrames	
100.00	100.00	6	43	mm	100.00	3924	274	
Frame#	Time	LFHD			RFHD			LBHD			RBHD			C7			T10			CLAV			STRN			RBAK			LSHO			LUPA			LELB			LFRM			LWRA			LWRB			LFIN			RSHO			RUPA			RELB			RFRM			RWRA			RWRB			RFIN			LASI			RASI			LPSI			RPSI			LTHI			LKNE			LTIB			LANK			LHEE			LTOE			RTHI			RKNE			RTIB			RANK			RHEE			RTOE			*39			*40			*41			*42			
		X1	Y1	Z1	X2	Y2	Z2	X3	Y3	Z3	X4	Y4	Z4	X5	Y5	Z5	X6	Y6	Z6	X7	Y7	Z7	X8	Y8	Z8	X9	Y9	Z9	X10	Y10	Z10	X11	Y11	Z11	X12	Y12	Z12	X13	Y13	Z13	X14	Y14	Z14	X15	Y15	Z15	X16	Y16	Z16	X17	Y17	Z17	X18	Y18	Z18	X19	Y19	Z19	X20	Y20	Z20	X21	Y21	Z21	X22	Y22	Z22	X23	Y23	Z23	X24	Y24	Z24	X25	Y25	Z25	X26	Y26	Z26	X27	Y27	Z27	X28	Y28	Z28	X29	Y29	Z29	X30	Y30	Z30	X31	Y31	Z31	X32	Y32	Z32	X33	Y33	Z33	X34	Y34	Z34	X35	Y35	Z35	X36	Y36	Z36	X37	Y37	Z37	X38	Y38	Z38	X39	Y39	Z39	X40	Y40	Z40	X41	Y41	Z41	X42	Y42	Z42	X43	Y43	Z43	

103	1.020	-1041.40027	360.76480	1663.90002	-1146.10925	313.56470	1668.54883	-1086.32373	471.97906	1629.39807	-1197.99536	425.92804	1634.61060	-1121.75171	508.56653	1424.72827	-1129.32446	539.16351	1133.16553	-1110.67664	364.28912	1360.99756	-1106.48535	318.37598	1206.73792	-1205.12146	553.33783	1231.16028	-953.86230	436.95325	1389.98071	-878.19452	488.01239	1205.00562	-888.18585	518.58282	1059.73474	-861.16687	506.89398	947.94165	-873.66956	454.58057	817.23578	-854.53662	511.02701	825.32947	-844.30695	482.17816	744.86707	-1265.94885	416.26102	1389.78882	-1375.45227	448.58963	1188.66870	-1384.81873	432.59674	1065.59705	-1418.81030	383.26709	956.71289	-1403.24146	281.89969	857.40314	-1442.37830	324.27161	851.22852	-1444.26099	272.67252	782.63422	-1017.46130	366.76660	927.48071	-1236.01453	369.24030	924.22321	-1066.13037	553.66602	939.80530	-1210.18005	553.45685	947.28448	-947.87744	335.37762	606.19818	-967.78381	308.68808	477.14908	-956.23822	299.54065	291.78601	-1002.39081	236.55539	77.28790	-1062.01331	260.37790	35.55251	-981.66193	90.89385	85.41193	-1282.43689	474.79614	599.10986	-1255.52429	498.68890	440.41553	-1258.26929	589.25629	287.92972	-1204.51135	659.56964	92.55099	-1153.03162	713.56628	63.73886	-1199.44690	525.39001	37.53304	-1126.96106	328.57776	1703.31409	-3101.98926	1972.95593	1023.89490	-3140.52515	2012.52820	1021.99866			 
104	1.030	-1039.08521	354.35306	1663.30603	-1144.00403	307.42365	1667.96863	-1083.95361	465.81738	1628.66968	-1195.73096	419.77863	1633.91187	-1119.60864	501.79498	1423.60303	-1127.58484	531.52161	1132.01880	-1108.85376	357.30331	1360.36365	-1104.92383	310.95068	1206.18701	-1203.21069	546.14282	1230.05249	-951.87128	429.89459	1388.86755	-876.23914	480.52081	1203.69128	-886.61792	510.84991	1058.49841	-859.87488	499.24716	946.68353	-872.68286	447.29333	815.79968	-853.48236	503.63644	824.02838	-843.41614	475.00116	743.48010	-1264.00269	409.64368	1389.17578	-1373.30566	442.19733	1187.89429	-1382.90259	426.04889	1064.96680	-1417.08716	377.14877	955.95978	-1401.78809	275.98911	856.12878	-1440.87695	318.58737	850.30072	-1443.03784	267.24326	781.53162	-1016.46265	358.22055	926.67676	-1235.04712	361.56540	923.49091	-1064.40234	545.35480	938.74445	-1208.36975	545.60486	946.60919	-948.43195	325.02716	606.13403	-967.71423	298.85849	476.79004	-955.84344	292.30194	290.65671	-1002.42993	233.13362	75.59787	-1061.76477	258.54810	35.05514	-982.56311	87.56395	81.41084	-1281.96033	468.74493	598.77240	-1255.05737	493.47501	439.94632	-1257.74805	585.76447	288.49774	-1204.47424	658.36401	93.95518	-1153.24622	713.43799	65.83823	-1199.47778	525.23761	37.51256	-1124.77991	322.53055	1702.53442	-3101.87280	1973.09546	1023.82123	-3140.57007	2012.53052	1022.09100			 
105	1.040	-1036.81677	348.05533	1662.58264	-1141.84082	301.26642	1667.42224	-1081.32813	459.24023	1627.62769	-1193.32446	413.69983	1633.31311	-1117.41089	495.04694	1422.42102	-1125.71631	523.76849	1130.84094	-1106.92004	350.32993	1359.74463	-1103.23413	303.38245	1205.73108	-1201.22400	538.94806	1228.95544	-949.72815	422.82700	1387.78333	-874.40338	472.90744	1202.35156	-885.00488	502.97568	1057.16907	-858.53796	491.34464	945.34180	-871.65784	439.50421	814.40906	-852.33386	495.84366	822.71466	-842.58466	467.34506	742.04242	-1262.00232	402.97711	1388.47864	-1371.31921	435.74707	1187.24695	-1380.92468	419.56403	1064.35583	-1415.32434	371.04788	955.21680	-1400.34741	270.34143	855.10028	-1439.10645	313.02133	849.31262	-1441.44836	261.84155	780.45697	-1015.40863	349.50317	925.86987	-1234.05115	353.70633	922.75482	-1062.61304	536.89368	937.74487	-1206.55054	537.75537	946.00647	-948.91333	314.36945	605.85632	-967.69977	289.17783	476.40091	-955.63593	285.45303	289.38757	-1002.76709	230.82106	73.30466	-1061.82715	257.35898	33.83385	-983.82233	84.96030	76.57999	-1280.75574	462.49091	598.29315	-1254.46497	487.97559	439.40088	-1257.36133	582.15717	289.21753	-1204.74854	657.52765	95.43047	-1153.57788	712.60468	68.06852	-1199.49390	525.03076	37.51755	-1122.48267	316.29672	1701.93372	-3102.03760	1973.00684	1024.04785	-3140.77173	2012.41589	1021.91095			 
106	1.050	-1034.59583	341.52249	1661.66919	-1139.67334	295.09238	1666.89270	-1078.70569	453.01874	1626.94189	-1190.98291	407.61859	1632.69409	-1115.22522	488.19507	1421.36536	-1123.79028	515.74744	1129.61169	-1104.88330	343.27582	1359.13794	-1101.50745	295.74606	1205.36621	-1199.12976	531.62939	1227.82214	-947.52216	415.78812	1386.74976	-872.43665	465.06766	1200.99536	-883.37335	494.92618	1055.78418	-857.03528	483.24902	944.00177	-870.50189	431.47144	813.06555	-850.95966	487.67841	821.35468	-841.53271	459.17383	740.59961	-1259.83545	396.29572	1387.87109	-1369.20166	429.31805	1186.66235	-1378.83691	413.16418	1063.73560	-1413.46716	365.09149	954.45062	-1398.79846	264.74854	853.81525	-1437.66602	307.59109	848.36279	-1439.94360	256.74887	779.26282	-1014.40131	340.53320	925.18878	-1232.90015	344.55560	922.39148	-1060.63342	528.32050	936.80542	-1204.59656	529.71069	945.30334	-949.42493	304.16708	605.58093	-967.61481	279.61414	476.01987	-955.78931	278.95401	288.02264	-1003.93658	228.96175	71.86289	-1062.91614	256.50714	33.81014	-984.83875	82.79712	70.63107	-1280.19922	455.86789	597.78876	-1253.99622	482.32648	439.14560	-1256.94275	578.45343	290.00751	-1205.03198	656.46112	97.24993	-1153.90430	712.02264	70.47235	-1199.67249	524.77454	37.57129	-1120.17468	310.12109	1701.36060	-3101.98975	1973.08801	1023.39734	-3140.64404	2012.44531	1022.01312			 
107	1.060	-1032.12720	335.00403	1661.26782	-1137.33752	288.86826	1666.61853	-1075.90015	446.59875	1626.28223	-1188.35962	401.53268	1632.24902	-1112.60059	481.64474	1420.25574	-1121.80725	507.78510	1128.54492	-1102.77039	336.15106	1358.73669	-1099.73474	287.98264	1205.13306	-1196.84729	524.22266	1226.74866	-945.21014	408.57974	1385.76953	-870.42999	457.37354	1199.64355	-881.60431	486.74463	1054.42944	-855.45947	474.82883	942.62140	-869.36877	422.96085	811.71979	-849.79657	479.26953	819.98590	-840.54138	450.69037	739.17828	-1257.44250	389.68182	1387.30164	-1366.98657	422.84338	1186.13989	-1376.74146	406.81436	1063.23193	-1411.58289	359.27673	953.83282	-1397.19543	259.30450	852.65271	-1435.94067	302.25302	847.40320	-1438.39282	251.81038	778.18530	-1013.51990	331.78049	924.44952	-1231.82007	336.59998	921.71765	-1058.49170	519.84430	936.04779	-1202.68140	521.65082	944.75519	-949.97870	294.54059	605.20612	-967.23193	270.40195	475.81601	-956.14117	272.91553	287.14124	-1004.54883	226.20537	71.58514	-1063.42200	254.80161	34.78873	-985.62170	79.73282	65.32734	-1279.15259	449.14438	597.52979	-1253.33533	476.39606	438.71579	-1256.30090	574.58838	290.89630	-1205.11218	655.17365	98.89352	-1154.28101	711.11749	73.06488	-1199.72717	524.46210	37.73965	-1117.86975	303.92764	1701.11548	-3101.90869	1972.99097	1023.38379	-3140.73291	2012.49048	1022.11127			 
108	1.070	-1029.52881	328.44980	1661.45703	-1134.93152	282.59515	1666.77234	-1073.15137	439.90662	1625.89600	-1185.78137	395.35367	1632.26440	-1110.05933	474.89246	1419.58350	-1119.81567	499.32681	1127.78162	-1100.55481	329.06244	1358.60852	-1097.90930	280.34491	1205.35547	-1194.33472	516.81360	1225.92310	-942.79834	401.40375	1384.97156	-868.35242	449.49124	1198.40271	-879.70258	478.23972	1053.06848	-853.86072	466.21991	941.20160	-868.12195	414.11041	810.48871	-848.24506	470.39908	818.61292	-839.37396	441.75803	737.89777	-1255.41272	382.88095	1387.10901	-1364.74597	416.38638	1185.78577	-1374.51245	400.51028	1062.81152	-1409.64722	353.52625	953.22162	-1395.51648	254.06960	851.52826	-1434.26233	297.12842	846.49561	-1436.68433	246.99278	776.94019	-1012.61847	322.91418	924.02142	-1230.64478	328.71255	921.16010	-1056.26514	511.21094	935.57495	-1200.70422	513.58569	944.15527	-950.25067	285.54214	605.33655	-966.47717	262.01306	475.91428	-956.63403	266.79611	286.97818	-1003.91644	222.89581	71.73798	-1062.67163	253.04758	35.97082	-986.28351	76.40850	61.50885	-1278.03540	441.96393	597.01599	-1252.43372	470.02316	438.25708	-1255.83508	570.40710	292.04312	-1205.51685	654.01410	101.27207	-1154.88953	710.23444	76.16972	-1199.69275	524.40735	37.41194	-1115.34827	297.83701	1700.92212	-3101.95142	1973.16040	1023.54303	-3140.72583	2012.49683	1022.18835			 
